<svg width="45" height="44" viewBox="0 0 45 44" fill="none" xmlns="http://www.w3.org/2000/svg">
<path d="M17.076 19.328C16.6589 19.2544 16.2778 19.0453 15.9916 18.733C15.7054 18.4208 15.5302 18.0229 15.493 17.601H23.133C23.3442 17.6018 23.5534 17.5608 23.7486 17.4804C23.9438 17.3999 24.1211 17.2816 24.2704 17.1323C24.4197 16.983 24.538 16.8057 24.6184 16.6105C24.6988 16.4153 24.7398 16.2061 24.739 15.995V1.60694C24.74 1.39574 24.6991 1.18642 24.6187 0.9911C24.5383 0.795777 24.4201 0.618279 24.2708 0.468883C24.1215 0.319488 23.9441 0.201229 23.7488 0.120739C23.5535 0.0402484 23.3442 -0.000782761 23.133 1.13088e-05H1.97604C1.54992 0.000276228 1.14131 0.169645 0.839996 0.470959C0.538683 0.772272 0.369283 1.18082 0.369019 1.60694V15.995C0.369284 16.421 0.538715 16.8295 0.840057 17.1306C1.1414 17.4318 1.55001 17.601 1.97604 17.601H9.62204C9.58492 18.0229 9.4097 18.4208 9.1235 18.733C8.83731 19.0453 8.45613 19.2544 8.03903 19.328C7.94927 19.3408 7.86694 19.3849 7.8067 19.4526C7.74646 19.5204 7.7122 19.6074 7.71002 19.698C7.70976 19.7475 7.71933 19.7964 7.73813 19.8422C7.75693 19.8879 7.78461 19.9294 7.81958 19.9644C7.85455 19.9993 7.8961 20.0271 7.94183 20.0459C7.98757 20.0647 8.03658 20.0743 8.08603 20.074H17.022C17.1203 20.08 17.217 20.0469 17.2911 19.9821C17.3652 19.9172 17.4107 19.8259 17.4178 19.7277C17.4249 19.6295 17.393 19.5324 17.329 19.4575C17.2651 19.3827 17.1741 19.3362 17.076 19.328V19.328Z" fill="#FEFEFE"/>
<path d="M42.762 23.9259H21.605C21.179 23.9262 20.7705 24.0956 20.4694 24.397C20.1682 24.6983 19.999 25.1068 19.999 25.5329V39.9209C19.999 40.3469 20.1682 40.7556 20.4694 41.0569C20.7705 41.3582 21.179 41.5277 21.605 41.528H29.251C29.2139 41.9498 29.0386 42.3475 28.7524 42.6596C28.4662 42.9716 28.085 43.1805 27.668 43.2539C27.5785 43.2669 27.4964 43.3112 27.4363 43.3789C27.3763 43.4467 27.3422 43.5334 27.34 43.6239C27.3398 43.6734 27.3493 43.7223 27.3681 43.7681C27.3869 43.8138 27.4146 43.8554 27.4496 43.8904C27.4846 43.9254 27.5261 43.953 27.5718 43.9718C27.6176 43.9906 27.6666 44.0002 27.716 43.9999H36.652C36.7018 44.0003 36.7512 43.9909 36.7973 43.9722C36.8434 43.9535 36.8854 43.9259 36.9209 43.891C36.9564 43.8561 36.9846 43.8145 37.004 43.7687C37.0234 43.7229 37.0336 43.6737 37.034 43.6239C37.0317 43.5333 36.9973 43.4465 36.9371 43.3788C36.8769 43.3111 36.7947 43.2669 36.705 43.2539C36.288 43.1805 35.9069 42.9716 35.6207 42.6596C35.3345 42.3475 35.1592 41.9498 35.122 41.528H42.762C42.9733 41.5289 43.1827 41.4879 43.3781 41.4075C43.5735 41.3271 43.751 41.2088 43.9004 41.0593C44.0498 40.9099 44.1682 40.7324 44.2486 40.537C44.329 40.3416 44.37 40.1322 44.369 39.9209V25.5329C44.37 25.3216 44.329 25.1123 44.2486 24.9169C44.1682 24.7215 44.0498 24.544 43.9004 24.3945C43.751 24.2451 43.5735 24.1268 43.3781 24.0464C43.1827 23.966 42.9733 23.925 42.762 23.9259V23.9259Z" fill="#FEFEFE"/>
<path d="M9.86008 32.101V22.9009H6.99707V32.101C6.99813 33.0363 7.37016 33.9331 8.03156 34.5945C8.69295 35.2559 9.58973 35.6278 10.5251 35.6289H15.9421V32.7699H10.5251C10.4375 32.7698 10.3507 32.7523 10.2698 32.7186C10.1889 32.6849 10.1155 32.6356 10.0537 32.5735C9.99193 32.5113 9.94305 32.4375 9.90982 32.3564C9.87659 32.2754 9.85968 32.1886 9.86008 32.101Z" fill="#FEFEFE"/>
<path d="M35.2 8.14294V20.6949H38.063V8.14099C38.0619 7.20554 37.6899 6.30865 37.0285 5.64709C36.3672 4.98554 35.4704 4.61326 34.535 4.61194H28.24V7.47498H34.535C34.6225 7.47511 34.7092 7.49247 34.79 7.52612C34.8708 7.55978 34.9442 7.60898 35.006 7.67102C35.0677 7.73306 35.1167 7.80673 35.15 7.8877C35.1833 7.96866 35.2002 8.0554 35.2 8.14294V8.14294Z" fill="#FEFEFE"/>
</svg>
